<?xml version="1.0" standalone="no"?>
<!DOCTYPE svg PUBLIC "-//W3C//DTD SVG 20010904//EN"
 "http://www.w3.org/TR/2001/REC-SVG-20010904/DTD/svg10.dtd">
<svg version="1.0" xmlns="http://www.w3.org/2000/svg"
 width="512.000000pt" height="512.000000pt" viewBox="0 0 512.000000 512.000000"
 preserveAspectRatio="xMidYMid meet">

<g transform="translate(0.000000,512.000000) scale(0.100000,-0.100000)"
fill="#000000" stroke="none">
<path d="M2430 5001 c-30 -10 -75 -28 -100 -40 -32 -17 -355 -333 -1146 -1124
-1021 -1021 -1104 -1107 -1134 -1168 -132 -274 23 -592 319 -655 39 -8 126
-14 214 -14 l147 0 0 -752 c0 -441 4 -778 10 -812 21 -129 107 -242 227 -299
l68 -32 228 -3 227 -3 0 683 c0 468 4 696 11 723 17 59 75 111 143 125 37 7
174 10 418 8 392 -3 392 -3 445 -60 54 -58 53 -42 53 -788 l0 -690 763 2 762
3 68 32 c121 58 205 170 227 303 6 40 10 349 10 813 l0 747 148 0 c230 0 324
29 436 130 67 62 122 165 138 262 16 88 0 189 -42 277 -30 61 -113 147 -1134
1168 -865 865 -1112 1106 -1151 1126 -118 59 -248 73 -355 38z"/>
</g>
</svg>
