<?xml version="1.0" standalone="no"?>
<!DOCTYPE svg PUBLIC "-//W3C//DTD SVG 20010904//EN"
 "http://www.w3.org/TR/2001/REC-SVG-20010904/DTD/svg10.dtd">
<svg version="1.0" xmlns="http://www.w3.org/2000/svg"
 width="225.000000pt" height="225.000000pt" viewBox="0 0 225.000000 225.000000"
 preserveAspectRatio="xMidYMid meet">

<g transform="translate(0.000000,225.000000) scale(0.100000,-0.100000)"
fill="#000000" stroke="none">
<path d="M1233 2236 c-48 -22 -61 -51 -72 -161 -16 -158 -62 -284 -151 -415
-53 -77 -179 -218 -239 -265 l-50 -40 -1 -622 0 -621 25 -30 c13 -16 48 -40
77 -53 l53 -24 493 -3 493 -3 30 33 c44 46 73 110 114 245 96 314 191 733 201
883 5 74 3 89 -15 117 -43 68 -40 68 -399 71 l-324 3 6 27 c60 274 74 403 57
532 -6 50 -21 115 -32 144 -53 143 -172 224 -266 182z"/>
<path d="M67 1330 c-34 -27 -34 1 3 -601 46 -745 40 -680 66 -706 22 -22 29
-23 201 -23 145 0 183 3 201 16 l22 15 0 629 0 629 -24 28 -24 28 -209 3
c-200 3 -210 2 -236 -18z"/>
</g>
</svg>
