<?xml version="1.0" standalone="no"?>
<!DOCTYPE svg PUBLIC "-//W3C//DTD SVG 20010904//EN"
 "http://www.w3.org/TR/2001/REC-SVG-20010904/DTD/svg10.dtd">
<svg version="1.0" xmlns="http://www.w3.org/2000/svg"
 width="225.000000pt" height="225.000000pt" viewBox="0 0 225.000000 225.000000"
 preserveAspectRatio="xMidYMid meet">

<g transform="translate(0.000000,225.000000) scale(0.100000,-0.100000)"
fill="#000000" stroke="none">
<path d="M542 1627 c-23 -23 -42 -49 -42 -57 0 -9 113 -128 250 -265 138 -137
250 -254 250 -260 0 -6 -112 -123 -250 -260 -137 -137 -250 -257 -250 -265 0
-20 81 -100 100 -100 17 0 630 609 630 625 0 17 -614 625 -630 625 -9 0 -35
-19 -58 -43z"/>
<path d="M1024 1626 c-24 -24 -44 -50 -44 -57 0 -8 115 -129 255 -269 l255
-255 -256 -256 c-204 -204 -255 -260 -250 -276 3 -10 24 -36 45 -57 30 -30 45
-37 63 -33 32 9 618 598 618 622 0 26 -598 625 -624 625 -10 0 -38 -20 -62
-44z"/>
</g>
</svg>
