<?xml version="1.0" standalone="no"?>
<!DOCTYPE svg PUBLIC "-//W3C//DTD SVG 20010904//EN"
 "http://www.w3.org/TR/2001/REC-SVG-20010904/DTD/svg10.dtd">
<svg version="1.0" xmlns="http://www.w3.org/2000/svg"
 width="840.000000pt" height="862.000000pt" viewBox="0 0 840.000000 862.000000"
 preserveAspectRatio="xMidYMid meet">

<g transform="translate(0.000000,862.000000) scale(0.100000,-0.100000)"
fill="#000000" stroke="none">
<path d="M591 8194 c-174 -47 -301 -174 -366 -365 -28 -80 -33 -191 -14 -250
24 -69 125 -224 184 -283 73 -71 387 -350 1520 -1352 1772 -1566 1948 -1720
1998 -1752 100 -63 149 -76 287 -76 113 -1 131 2 187 26 108 46 95 35 768 632
149 131 551 487 895 790 633 557 863 761 1495 1321 193 170 380 336 416 367
116 101 224 282 235 396 12 121 -45 282 -137 385 -171 192 -435 233 -653 102
-71 -43 -17 4 -906 -785 -393 -348 -794 -704 -890 -790 -509 -451 -1402 -1235
-1409 -1238 -8 -3 -340 289 -1391 1223 -267 237 -696 617 -955 846 -893 788
-858 760 -984 799 -76 24 -200 26 -280 4z"/>
<path d="M635 4490 c-164 -33 -297 -134 -370 -280 -54 -109 -67 -162 -64 -253
4 -92 30 -155 111 -277 54 -79 104 -126 970 -891 2259 -1998 2594 -2291 2643
-2320 178 -103 395 -99 560 10 33 22 227 188 431 368 835 739 980 867 1464
1293 616 543 1465 1295 1578 1397 127 115 227 281 239 396 13 127 -54 301
-156 402 -177 176 -396 212 -611 99 -79 -41 -53 -19 -1010 -869 -1391 -1236
-2212 -1956 -2225 -1953 -15 3 -119 94 -1165 1023 -1717 1524 -1997 1768
-2072 1806 -102 52 -220 69 -323 49z"/>
</g>
</svg>
