<?xml version="1.0" standalone="no"?>
<!DOCTYPE svg PUBLIC "-//W3C//DTD SVG 20010904//EN"
 "http://www.w3.org/TR/2001/REC-SVG-20010904/DTD/svg10.dtd">
<svg version="1.0" xmlns="http://www.w3.org/2000/svg"
 width="200.000000pt" height="200.000000pt" viewBox="0 0 200.000000 200.000000"
 preserveAspectRatio="xMidYMid meet">

<g transform="translate(0.000000,200.000000) scale(0.100000,-0.100000)"
fill="#000000" stroke="none">
<path d="M162 1870 c-18 -4 -42 -16 -54 -26 -47 -42 -48 -53 -48 -564 0 -513
1 -521 50 -565 21 -19 39 -20 359 -23 375 -4 383 -2 414 63 22 46 34 53 245
140 225 93 349 155 470 234 l92 61 0 287 c0 317 -3 333 -63 377 -28 21 -37 21
-730 23 -386 1 -717 -2 -735 -7z m683 -402 c201 -101 365 -185 365 -188 0 -5
-725 -370 -735 -370 -3 0 -5 167 -5 370 0 204 2 370 5 370 3 0 169 -82 370
-182z"/>
<path d="M1660 1099 c-68 -49 -261 -156 -352 -195 -38 -16 -68 -32 -68 -36 0
-4 30 -83 66 -174 53 -132 70 -165 83 -160 9 3 81 28 161 55 80 28 193 60 252
73 60 13 108 28 108 33 0 20 -177 439 -186 441 -5 1 -34 -16 -64 -37z"/>
<path d="M1859 992 c11 -26 27 -67 36 -92 25 -63 31 -67 45 -25 20 61 -13 133
-70 153 l-29 11 18 -47z"/>
<path d="M1068 806 c-114 -50 -128 -60 -128 -95 0 -30 94 -259 115 -280 21
-22 53 -16 162 29 l102 42 -15 37 c-9 20 -41 98 -72 174 -31 75 -58 137 -61
136 -3 -1 -50 -20 -103 -43z"/>
<path d="M856 639 c-21 -31 -21 -32 15 -120 22 -56 37 -79 56 -88 15 -7 30 -8
35 -3 8 8 -63 206 -82 225 -4 5 -15 -2 -24 -14z"/>
<path d="M1227 397 l-47 -22 -3 -104 c-3 -91 -1 -107 15 -123 23 -23 35 -23
91 1 67 29 73 48 43 126 -15 35 -26 82 -26 104 0 47 -5 49 -73 18z"/>
</g>
</svg>
