<?xml version="1.0" standalone="no"?>
<!DOCTYPE svg PUBLIC "-//W3C//DTD SVG 20010904//EN"
 "http://www.w3.org/TR/2001/REC-SVG-20010904/DTD/svg10.dtd">
<svg version="1.0" xmlns="http://www.w3.org/2000/svg"
 width="512.000000pt" height="512.000000pt" viewBox="0 0 512.000000 512.000000"
 preserveAspectRatio="xMidYMid meet">

<g transform="translate(0.000000,512.000000) scale(0.100000,-0.100000)"
fill="#000000" stroke="none">
<path d="M1570 4670 c-117 -43 -216 -137 -263 -252 l-22 -53 -3 -1345 c-2
-1005 0 -1359 9 -1400 33 -158 155 -283 314 -325 52 -13 226 -15 1385 -15 856
0 1341 4 1369 11 123 28 235 119 293 236 l33 68 0 1391 0 1390 -37 75 c-46 93
-112 158 -206 202 l-67 32 -1375 2 c-1348 2 -1376 2 -1430 -17z m1635 -1206
l635 -476 -608 -456 c-334 -250 -622 -466 -639 -480 l-33 -24 0 956 c0 526 2
956 5 956 3 0 291 -214 640 -476z"/>
<path d="M432 2292 l3 -1548 37 -75 c46 -93 112 -158 206 -202 l67 -32 1548
-3 1547 -2 0 210 0 210 -1492 2 -1493 3 -3 1493 -2 1492 -210 0 -210 0 2
-1548z"/>
</g>
</svg>
